<svg id="Layer_1" data-name="Layer 1" xmlns="http://www.w3.org/2000/svg" viewBox="0 0 64 64">
  <defs>
    <style>
      .cls-1 {
        fill: #35363a;
      }

      .cls-2, .cls-3 {
        fill: #fff;
      }

      .cls-3 {
        font-size: 4.24px;
        font-family: SackersGothicStd-Medium, Sackers Gothic Std;
        font-weight: 500;
        letter-spacing: 0.3em;
      }
    </style>
  </defs>
  <g>
    <rect class="cls-1" width="64" height="64"/>
    <g>
      <g>
        <polygon class="cls-2" points="16.36 19.97 16.66 12.43 16.96 19.97 16.36 19.97"/>
        <path class="cls-2" d="M6,38.12c1.79.06,3.55.16,5.32.19.88,0,1.76,0,2.64,0s1.76-.1,2.66-.17a11.8,11.8,0,0,1-2.62.64,18.59,18.59,0,0,1-2.69.15,24.18,24.18,0,0,1-2.69-.22A17,17,0,0,1,6,38.12Z"/>
        <path class="cls-2" d="M6.24,41.09c1.76.07,3.48.17,5.22.19.86,0,1.72,0,2.59,0s1.73-.1,2.61-.17a11.38,11.38,0,0,1-2.57.64,18,18,0,0,1-2.64.15,21,21,0,0,1-2.64-.21A15.16,15.16,0,0,1,6.24,41.09Z"/>
        <path class="cls-2" d="M3,31a4.83,4.83,0,0,1-.38-2,3.59,3.59,0,0,1,.62-2A3.28,3.28,0,0,1,4.9,25.74a1.75,1.75,0,0,1,.51-.14l.51-.1c.35,0,.69,0,1,0-.33.08-.67.13-1,.21l-.48.16A2.07,2.07,0,0,0,5,26l-.44.21c-.14.09-.26.19-.39.28a1.63,1.63,0,0,0-.36.33L3.65,27a2.14,2.14,0,0,0-.13.19A3.72,3.72,0,0,0,2.88,29,7.15,7.15,0,0,0,3,31Z"/>
        <path class="cls-2" d="M3,35.63a3.24,3.24,0,0,1-2-.77,1.7,1.7,0,0,1-.49-1,1.82,1.82,0,0,1,0-.57,2.12,2.12,0,0,1,.13-.54A3,3,0,0,1,1.89,31,2,2,0,0,1,3,30.77a2.71,2.71,0,0,1,1.08.39h0l0,0a5,5,0,0,1,1.06,1.67,4.61,4.61,0,0,1,.25,1c0,.34.08.65.1,1,.12,1.29.21,2.57.26,3.86s0,2.59,0,3.88a18.16,18.16,0,0,1-.56,3.82,21.38,21.38,0,0,0,.33-3.83c0-1.28,0-2.57-.1-3.85s-.17-2.56-.3-3.84l-.1-1a4.53,4.53,0,0,0-.21-.9,4.74,4.74,0,0,0-1-1.57l0,0A2,2,0,0,0,2,31.26,2.74,2.74,0,0,0,.83,32.84a2.19,2.19,0,0,0-.14.5,1.7,1.7,0,0,0,0,.5,1.59,1.59,0,0,0,.39.92A3.35,3.35,0,0,0,3,35.63Z"/>
        <path class="cls-2" d="M3.13,34.18a1.73,1.73,0,0,1-1.26.2.78.78,0,0,1-.47-.47,1,1,0,0,1-.09-.33,1.84,1.84,0,0,1,0-.33A1.47,1.47,0,0,1,1.81,32a1.49,1.49,0,0,1,1.34-.24,1.89,1.89,0,0,1,1.08.82,3.85,3.85,0,0,1,.48,1.24A25.32,25.32,0,0,1,5,36.43c.06,1.7.11,3.4.08,5.1a24,24,0,0,1-.49,5.08,17.73,17.73,0,0,0,.19-2.53c0-.85,0-1.7,0-2.55,0-1.69-.07-3.39-.17-5.08,0-.84-.06-1.71-.19-2.52a3.29,3.29,0,0,0-.42-1.12,1.68,1.68,0,0,0-.88-.72A1.21,1.21,0,0,0,2,32.24a1.22,1.22,0,0,0-.49,1c0,.39,0,.86.43,1A1.73,1.73,0,0,0,3.13,34.18Z"/>
        <path class="cls-2" d="M5.44,35.63c.27-.45.57-.87.87-1.3a10.81,10.81,0,0,1,1.16-1.07,2.06,2.06,0,0,1,.39-.21L8,33h.11l.17,0L9,32.88c.5-.09,1-.16,1.53-.23a24.43,24.43,0,0,1,3.09-.23l.79,0c.26,0,.52,0,.78.09a4.17,4.17,0,0,1,1.43.67,4.9,4.9,0,0,0-1.49-.28l-.75-.09-.76,0a23.91,23.91,0,0,0-3,.22l-1.52.23-.77.12-.21,0H8a1.21,1.21,0,0,0-.29.16,8.68,8.68,0,0,0-1.09,1C6.21,34.94,5.83,35.29,5.44,35.63Z"/>
        <path class="cls-2" d="M16.66,46.36a32.8,32.8,0,0,0-3.54-.63,21.1,21.1,0,0,0-3.55-.15,10.35,10.35,0,0,0-3.42.67l-.78.38a5.28,5.28,0,0,1-.87.4,2.34,2.34,0,0,1-1,.1,1.28,1.28,0,0,1-.94-.65v-.06a17.81,17.81,0,0,1-.29-2.71c-.05-.91,0-1.81,0-2.71s.1-1.8.2-2.7.2-1.79.36-2.67c0,.9-.09,1.79-.11,2.69s-.05,1.79,0,2.68a29.09,29.09,0,0,0,.43,5.3l0-.06a.7.7,0,0,0,.51.31,1.68,1.68,0,0,0,.75-.1,3.41,3.41,0,0,0,.76-.34l.85-.4a10,10,0,0,1,3.62-.63,19.91,19.91,0,0,1,3.62.34A23,23,0,0,1,16.66,46.36Z"/>
        <path class="cls-2" d="M16.66,51.57c-.15-5.27-.2-10.53-.26-15.8l0-7.9c0-2.63,0-5.26,0-7.9l.15.25A4.35,4.35,0,0,0,15.31,20c-.44,0-.88,0-1.33,0a19.7,19.7,0,0,0-2.66.18,13,13,0,0,0-2.58.56,4,4,0,0,0-.6.26,1.73,1.73,0,0,0-.27.15l-.1.08s-.06.07-.1.1a3.06,3.06,0,0,0-.45,1.16A13,13,0,0,0,7,25.1c0,.9.08,1.79.15,2.69.16,1.79.41,3.58.71,5.36-.4-1.76-.71-3.54-1-5.33-.12-.9-.21-1.8-.24-2.71a13.3,13.3,0,0,1,.12-2.74A3.06,3.06,0,0,1,7.33,21c0-.05.08-.11.13-.15l.16-.13a2.16,2.16,0,0,1,.31-.19,4.52,4.52,0,0,1,.64-.29,11.49,11.49,0,0,1,2.68-.64A22.81,22.81,0,0,1,14,19.42c.46,0,.91,0,1.37,0,.23,0,.46,0,.7.07a3.16,3.16,0,0,1,.73.19l.15.07V20c0,2.64,0,5.27,0,7.9l0,7.9C16.86,41,16.8,46.3,16.66,51.57Z"/>
        <path class="cls-2" d="M7.89,21.61a14.41,14.41,0,0,1,1.94-.69,15.36,15.36,0,0,1,2-.45,11.09,11.09,0,0,1,2.07-.14,6.38,6.38,0,0,1,2,.36,8.7,8.7,0,0,0-2-.21,14.05,14.05,0,0,0-2,.18,19.7,19.7,0,0,0-2,.41Q8.86,21.31,7.89,21.61Z"/>
      </g>
      <g>
        <path class="cls-2" d="M53.11,33.82h.69a.29.29,0,0,0,.27-.18l3.86-8.16a.3.3,0,0,1,.55,0l3.8,8.16a.31.31,0,0,0,.28.18h.69a.31.31,0,0,0,.28-.44l-4.6-9.81a.31.31,0,0,0-.28-.18h-.86a.31.31,0,0,0-.28.18l-4.68,9.81A.31.31,0,0,0,53.11,33.82Z"/>
        <g>
          <path class="cls-2" d="M19.79,33.82h.69a.31.31,0,0,0,.28-.18l3.85-8.16a.31.31,0,0,1,.56,0L29,33.64a.3.3,0,0,0,.27.18h.7a.31.31,0,0,0,.27-.44l-4.59-9.81a.32.32,0,0,0-.28-.18h-.87a.31.31,0,0,0-.28.18l-4.67,9.81A.31.31,0,0,0,19.79,33.82Z"/>
          <path class="cls-2" d="M27.9,33.86a.4.4,0,0,1-.33.18H27.2a.38.38,0,0,1-.34-.23l-2-4.24-2,4.25a.39.39,0,0,1-.35.22h-.36a.4.4,0,0,1-.33-.18.38.38,0,0,1,0-.37l2.5-5.24a.37.37,0,0,1,.35-.22h.46a.4.4,0,0,1,.35.22l2.45,5.24A.38.38,0,0,1,27.9,33.86Z"/>
        </g>
        <path class="cls-2" d="M31.22,23.45v1.12a.06.06,0,0,0,.06.06h5.93a2.05,2.05,0,0,1,2.28,2h0a1.81,1.81,0,0,1-1.61,1.62c-1.41.18-6,0-6.6,0a.06.06,0,0,0-.06.06v5.49a.06.06,0,0,0,.06.06h1.11a.06.06,0,0,0,.06-.06V29.61a.06.06,0,0,1,.06-.06H36.6a.05.05,0,0,1,0,0l2.4,4.29a.05.05,0,0,0,.05,0h1.28a.06.06,0,0,0,.06-.09l-2.36-4.18a.06.06,0,0,1,0-.09,3.78,3.78,0,0,0,1.17-.48,3.15,3.15,0,0,0,.64-4.74,1.74,1.74,0,0,0-.41-.33,2.29,2.29,0,0,0-1.74-.57c-1.22,0-5.92,0-6.5,0A.06.06,0,0,0,31.22,23.45Z"/>
        <path class="cls-2" d="M42.59,33.88h.88a.18.18,0,0,0,.18-.18V25.84a.18.18,0,0,1,.31-.11l6.47,8.08a.21.21,0,0,0,.14.07h1a.18.18,0,0,0,.18-.18V23.57a.18.18,0,0,0-.18-.18h-.9a.17.17,0,0,0-.17.18v8a.18.18,0,0,1-.32.11L43.7,23.46a.17.17,0,0,0-.14-.07h-1a.18.18,0,0,0-.18.18V33.7A.18.18,0,0,0,42.59,33.88Z"/>
      </g>
      <text class="cls-3" transform="translate(21.29 40.43)">INTERIORS</text>
    </g>
  </g>
</svg>
