<svg id="Layer_1" data-name="Layer 1" xmlns="http://www.w3.org/2000/svg" viewBox="0 0 192 192"><defs><style>.cls-1{fill:#35363a;}.cls-2{font-size:12.14px;font-family:SackersGothicStd-Medium, Sackers Gothic Std;font-weight:500;letter-spacing:0.3em;}</style></defs><rect class="cls-1" width="192" height="192"/><polygon points="51.24 61.58 52.09 40 52.95 61.58 51.24 61.58"/><path d="M21.71,113.5c5.13.18,10.17.48,15.22.55,2.52.06,5,0,7.56,0s5-.28,7.6-.51a33.67,33.67,0,0,1-7.48,1.84,56.85,56.85,0,0,1-7.71.43,65.53,65.53,0,0,1-7.67-.62A46.08,46.08,0,0,1,21.71,113.5Z"/><path d="M22.28,122c5,.19,10,.49,14.93.55,2.48.06,4.95,0,7.42,0s4.94-.29,7.46-.5a32.34,32.34,0,0,1-7.34,1.83,51.74,51.74,0,0,1-7.56.44,63.17,63.17,0,0,1-7.54-.62A43.37,43.37,0,0,1,22.28,122Z"/><path d="M12.86,93.26a14.35,14.35,0,0,1-1.09-5.82,10.45,10.45,0,0,1,1.79-5.79,9.62,9.62,0,0,1,4.89-3.57,6.64,6.64,0,0,1,1.45-.4l1.47-.28c1,0,2-.08,3-.07-1,.25-1.92.4-2.86.62l-1.37.45a6.8,6.8,0,0,0-1.32.51l-1.27.62c-.39.24-.75.54-1.13.8a5.25,5.25,0,0,0-1,.92l-.48.49c-.14.18-.26.38-.39.57a10.87,10.87,0,0,0-1.83,5.19A21.47,21.47,0,0,0,12.86,93.26Z"/><path d="M12.86,106.39a9.29,9.29,0,0,1-5.71-2.21,4.88,4.88,0,0,1-1.41-2.84,5.78,5.78,0,0,1,0-1.61,6.85,6.85,0,0,1,.36-1.55,8.69,8.69,0,0,1,3.71-5.11,5.39,5.39,0,0,1,3.25-.58,7.65,7.65,0,0,1,3.1,1.1l0,0,.06.07a14.55,14.55,0,0,1,3.06,4.78,13.44,13.44,0,0,1,.71,2.79c.12,1,.21,1.84.29,2.77q.51,5.52.74,11c.16,3.69.12,7.39-.05,11.08a52.45,52.45,0,0,1-1.61,10.95,64.07,64.07,0,0,0,.95-11c.07-3.67-.12-7.34-.29-11s-.48-7.34-.86-11L19,101.4a12,12,0,0,0-.63-2.56,13.24,13.24,0,0,0-2.81-4.5l.11.09a5.6,5.6,0,0,0-5.36-.54c-1.7.83-2.78,2.68-3.47,4.52a6.34,6.34,0,0,0-.38,1.42,4.71,4.71,0,0,0-.09,1.45,4.47,4.47,0,0,0,1.13,2.62A9.47,9.47,0,0,0,12.86,106.39Z"/><path d="M13.38,102.24a5,5,0,0,1-3.6.57,2.33,2.33,0,0,1-1.35-1.35,3.06,3.06,0,0,1-.25-.93,4.26,4.26,0,0,1-.07-.94,4.05,4.05,0,0,1,5.32-4.16,5.32,5.32,0,0,1,3.1,2.35,10.47,10.47,0,0,1,1.39,3.55,71.43,71.43,0,0,1,.66,7.34c.2,4.87.33,9.74.24,14.61s-.2,9.79-1.38,14.54a49,49,0,0,0,.51-7.26q.07-3.63,0-7.28c-.09-4.85-.21-9.71-.5-14.55a70,70,0,0,0-.54-7.19,9.45,9.45,0,0,0-1.2-3.23,4.7,4.7,0,0,0-2.51-2,3.44,3.44,0,0,0-3.13.41,3.59,3.59,0,0,0-1.4,2.92c-.09,1.13.13,2.46,1.23,2.92A5,5,0,0,0,13.38,102.24Z"/><path d="M20,106.39a43.66,43.66,0,0,1,2.49-3.71,26.31,26.31,0,0,1,3.32-3.07,5.44,5.44,0,0,1,1.1-.61,2.18,2.18,0,0,1,.4-.08l.2,0h.12c.16,0,.3,0,.49,0,.7-.09,1.43-.21,2.16-.32,1.45-.24,2.91-.46,4.38-.65a67.09,67.09,0,0,1,8.86-.66c.75,0,1.5,0,2.24.07s1.5.12,2.24.27a12.15,12.15,0,0,1,4.08,1.92,13.71,13.71,0,0,0-4.26-.8c-.7-.11-1.42-.17-2.14-.25s-1.44-.08-2.16-.07a67,67,0,0,0-8.71.65c-1.45.19-2.9.41-4.35.65-.73.11-1.45.23-2.2.33a5.79,5.79,0,0,1-.61,0H27.5l-.07,0s-.08,0-.13,0a4.29,4.29,0,0,0-.82.46,24,24,0,0,0-3.14,2.93C22.2,104.4,21.13,105.4,20,106.39Z"/><path d="M52.09,137.1A87.39,87.39,0,0,0,42,135.3a57.82,57.82,0,0,0-10.17-.44A29.58,29.58,0,0,0,22,136.77l-2.22,1.09A13.54,13.54,0,0,1,17.3,139a6.45,6.45,0,0,1-2.93.29,3.6,3.6,0,0,1-2.7-1.84l0-.07,0-.11a51.11,51.11,0,0,1-.83-7.77c-.14-2.59,0-5.18,0-7.76s.28-5.15.56-7.71.59-5.11,1-7.64c-.13,2.56-.26,5.13-.32,7.69s-.14,5.13-.1,7.69a85.77,85.77,0,0,0,1.23,15.16l-.05-.18a2,2,0,0,0,1.45.87,4.63,4.63,0,0,0,2.14-.26,11.72,11.72,0,0,0,2.19-1l2.42-1.16a29.21,29.21,0,0,1,10.37-1.81,57.72,57.72,0,0,1,10.36,1A63.27,63.27,0,0,1,52.09,137.1Z"/><path d="M52.09,152c-.41-15.07-.57-30.14-.73-45.21l-.09-22.6c-.05-7.54,0-15.07,0-22.61l.45.72a12.78,12.78,0,0,0-3.5-.63c-1.25-.11-2.52-.12-3.8-.13a62.78,62.78,0,0,0-7.62.51,38,38,0,0,0-7.39,1.62,15.25,15.25,0,0,0-1.7.73,5.69,5.69,0,0,0-.78.43l-.3.23c-.09.09-.17.21-.26.31a8,8,0,0,0-1.3,3.3,36.85,36.85,0,0,0-.51,7.59c.05,2.56.22,5.13.43,7.69.45,5.13,1.18,10.24,2,15.33-1.15-5-2-10.12-2.71-15.25-.33-2.57-.59-5.15-.69-7.74A38.11,38.11,0,0,1,24,68.46a9,9,0,0,1,1.45-3.86c.12-.14.22-.29.36-.43l.45-.38a7.8,7.8,0,0,1,.9-.53A16.69,16.69,0,0,1,29,62.42a34.87,34.87,0,0,1,7.66-1.83A63.83,63.83,0,0,1,44.43,60c1.31,0,2.62,0,3.93.1.66,0,1.32.11,2,.2a8.65,8.65,0,0,1,2.1.56l.44.18v.53c0,7.54.08,15.07,0,22.61l-.1,22.6C52.67,121.86,52.5,136.93,52.09,152Z"/><path d="M27,66.27a43.07,43.07,0,0,1,5.55-2A49.59,49.59,0,0,1,38.32,63a34.41,34.41,0,0,1,5.91-.4A18.48,18.48,0,0,1,50,63.65,23.72,23.72,0,0,0,44.23,63a39.23,39.23,0,0,0-5.82.53c-1.93.26-3.84.7-5.74,1.15S28.88,65.69,27,66.27Z"/><path d="M156.4,101.2h2a.89.89,0,0,0,.8-.51l11-23.36a.88.88,0,0,1,1.59,0l10.87,23.36a.89.89,0,0,0,.8.51h2a.88.88,0,0,0,.8-1.25L173.06,71.87a.86.86,0,0,0-.79-.5h-2.48a.88.88,0,0,0-.8.5L155.61,99.94A.89.89,0,0,0,156.4,101.2Z"/><path d="M61.07,101.2h2a.87.87,0,0,0,.79-.51l11-23.36a.88.88,0,0,1,1.59,0l10.87,23.36a.87.87,0,0,0,.79.51h2a.88.88,0,0,0,.8-1.25L77.73,71.87a.86.86,0,0,0-.79-.5H74.45a.87.87,0,0,0-.79.5L60.28,99.94A.88.88,0,0,0,61.07,101.2Z"/><path d="M84.26,101.32a1.1,1.1,0,0,1-.94.5h-1a1.11,1.11,0,0,1-1-.63L75.61,89l-5.73,12.16a1.11,1.11,0,0,1-1,.63h-1a1.07,1.07,0,0,1-.93-.51,1.08,1.08,0,0,1-.07-1.06l7.15-15a1.08,1.08,0,0,1,1-.63h1.33a1.1,1.1,0,0,1,1,.64l7,15A1.11,1.11,0,0,1,84.26,101.32Z"/><path d="M93.76,71.54v3.2a.17.17,0,0,0,.17.17h17s6.1-.6,6.53,5.8v0a5.17,5.17,0,0,1-4.6,4.64c-4,.53-17.23.07-18.91,0a.17.17,0,0,0-.17.18v15.71a.17.17,0,0,0,.17.17h3.2a.18.18,0,0,0,.17-.17V89.17a.17.17,0,0,1,.17-.17h11.68a.16.16,0,0,1,.15.09l6.87,12.26a.19.19,0,0,0,.15.09H120a.17.17,0,0,0,.15-.26l-6.74-12a.16.16,0,0,1,.1-.25,10.69,10.69,0,0,0,3.36-1.37A9,9,0,0,0,118.69,74a4.81,4.81,0,0,0-1.16-.94s-1.26-1.54-5-1.63c-3.49-.08-16.94-.08-18.61-.08A.16.16,0,0,0,93.76,71.54Z"/><path d="M126.3,101.38h2.53a.5.5,0,0,0,.5-.51V78.38a.51.51,0,0,1,.9-.31l18.52,23.12a.49.49,0,0,0,.39.19H152a.5.5,0,0,0,.5-.51v-29a.5.5,0,0,0-.5-.5H149.4a.5.5,0,0,0-.5.5v22.8a.51.51,0,0,1-.9.31L129.49,71.56a.53.53,0,0,0-.4-.19H126.3a.5.5,0,0,0-.5.5v29A.5.5,0,0,0,126.3,101.38Z"/><text class="cls-2" transform="translate(65.35 120.12)">INTERIORS</text></svg>